<?xml version="1.0" standalone="no"?>
<!DOCTYPE svg PUBLIC "-//W3C//DTD SVG 20010904//EN"
 "http://www.w3.org/TR/2001/REC-SVG-20010904/DTD/svg10.dtd">
<svg version="1.0" xmlns="http://www.w3.org/2000/svg"
 width="512.000000pt" height="512.000000pt" viewBox="0 0 512.000000 512.000000"
 preserveAspectRatio="xMidYMid meet">
<metadata>
Created by potrace 1.14, written by Peter Selinger 2001-2017
</metadata>
<g transform="translate(0.000000,512.000000) scale(0.100000,-0.100000)"
fill="#000000" stroke="none">
<path d="M2279 4092 c-35 -35 -232 -222 -235 -222 -1 0 -29 -26 -62 -57 -33
-32 -106 -101 -162 -153 -56 -52 -131 -123 -167 -157 -35 -35 -66 -63 -67 -63
-2 0 -30 -26 -63 -57 -152 -147 -226 -213 -235 -213 -6 0 -8 -3 -5 -7 4 -3
-10 -20 -30 -37 -84 -71 -91 -81 -88 -122 6 -63 17 -167 21 -199 2 -16 6 -55
8 -85 6 -70 16 -167 22 -200 2 -14 6 -59 10 -100 3 -41 8 -86 10 -100 3 -14 7
-50 9 -80 3 -30 7 -71 9 -90 8 -58 18 -164 18 -182 -1 -18 6 -21 43 -20 70 2
112 6 122 14 7 5 14 5 18 -2 3 -6 11 -8 16 -4 6 3 34 8 62 10 29 2 70 6 92 9
131 16 164 16 174 -4 6 -10 8 -21 6 -23 -6 -5 -10 -55 -20 -208 -4 -52 -8
-119 -10 -149 -4 -54 7 -80 55 -132 8 -9 25 -29 37 -45 12 -16 44 -56 70 -90
57 -71 91 -115 156 -198 26 -33 53 -68 60 -76 13 -16 149 -193 152 -198 1 -1
50 20 109 48 59 27 109 50 111 50 1 0 54 24 116 53 211 99 249 117 254 117 3
0 30 13 61 30 31 16 63 30 70 30 8 0 14 5 14 12 0 6 3 9 6 5 3 -3 36 9 72 28
69 34 133 63 212 97 24 11 40 22 34 26 -5 4 -18 27 -29 52 -11 25 -32 66 -47
92 -15 27 -25 48 -23 48 3 0 -2 11 -10 24 -15 23 -15 25 2 34 19 10 78 25 89
22 4 -1 10 3 13 9 4 6 21 11 39 13 18 1 32 5 32 9 0 4 12 9 28 12 15 3 79 20
142 39 131 38 126 31 109 154 -5 33 -11 86 -14 119 -4 33 -8 71 -10 85 -4 26
-16 125 -19 170 -2 27 18 49 47 50 9 0 17 4 17 8 0 10 50 37 63 34 4 -1 7 2 7
8 0 5 6 10 14 10 7 0 19 7 26 15 7 8 16 13 20 10 5 -3 11 -1 14 4 3 5 28 20
54 34 76 40 126 68 141 80 7 6 20 12 29 13 8 2 19 9 23 16 5 7 9 10 9 6 0 -4
21 6 47 22 26 17 53 30 60 30 7 0 13 4 13 8 0 5 18 17 40 27 22 10 40 21 40
25 0 8 -137 73 -144 68 -2 -1 -13 5 -23 15 -11 9 -23 14 -26 10 -4 -3 -7 -1
-7 5 0 7 -3 11 -7 10 -5 -1 -33 10 -63 24 -136 64 -229 107 -275 129 -27 12
-53 22 -57 21 -5 -1 -8 1 -8 6 0 4 -15 13 -32 20 -18 8 -53 23 -78 35 -24 12
-47 21 -51 20 -12 -4 -38 31 -42 57 -3 14 -13 61 -22 105 -9 44 -19 89 -21
100 -2 11 -6 31 -9 45 -9 39 -14 63 -19 85 -2 11 -14 65 -26 120 -11 55 -24
114 -27 130 -8 39 -21 65 -34 65 -6 0 -35 11 -65 25 -30 14 -57 25 -59 25 -2
0 -28 11 -57 24 -29 13 -141 61 -248 106 -107 45 -213 90 -235 100 -22 10 -80
35 -130 56 -49 21 -93 42 -96 47 -3 5 -8 8 -10 6 -3 -2 -28 3 -59 12 -3 1 -14
8 -25 15 -31 22 -57 16 -96 -24z"/>
</g>
</svg>
