<?xml version="1.0" encoding="UTF-8"?>
<svg xmlns="http://www.w3.org/2000/svg" xmlns:xlink="http://www.w3.org/1999/xlink" width="40px" height="40px" viewBox="0 0 40 40" version="1.1">
<g id="surface1">
<path style=" stroke:none;fill-rule:nonzero;fill:rgb(0%,0%,0%);fill-opacity:1;" d="M 27.582031 1.21875 L 27.582031 9.25 L 35.613281 9.25 Z M 15.839844 26.59375 L 19.195312 29.355469 C 19.707031 29.730469 20.398438 29.730469 20.910156 29.355469 L 24.167969 26.664062 L 24.453125 26.433594 L 36.875 16.179688 L 36.875 11.035156 L 25.796875 11.035156 L 25.796875 0 L 3.125 0 L 3.125 16.113281 L 15.554688 26.363281 Z M 38.042969 17.53125 L 28.191406 25.667969 L 26.320312 27.210938 L 39.261719 37.609375 L 39.261719 16.53125 Z M 8.855469 23.148438 L 1.957031 17.460938 L 0.738281 16.457031 L 0.738281 37.597656 L 13.691406 27.136719 Z M 22.046875 30.734375 C 20.878906 31.652344 19.234375 31.652344 18.0625 30.738281 L 15.097656 28.296875 L 0.738281 39.894531 C 0.742188 39.953125 0.792969 40 0.851562 40 L 39.148438 40 C 39.207031 39.996094 39.253906 39.953125 39.261719 39.894531 L 24.914062 28.367188 Z M 22.046875 30.734375 "/>
</g>
</svg>
